<svg width="10" height="10" viewBox="0 0 10 10" fill="none" xmlns="http://www.w3.org/2000/svg">
<mask id="mask0_2168_129" style="mask-type:luminance" maskUnits="userSpaceOnUse" x="0" y="0" width="10" height="10">
<path d="M10 0H0V10H10V0Z" fill="white"/>
</mask>
<g mask="url(#mask0_2168_129)">
<path d="M9.8 5.11365C9.8 4.7591 9.7682 4.4182 9.7091 4.0909H5V6.025H7.6909C7.575 6.65 7.22275 7.17955 6.6932 7.5341V8.78865H8.3091C9.25455 7.9182 9.8 6.63635 9.8 5.11365Z" fill="#4285F4"/>
<path d="M5 10C6.35 10 7.4818 9.55225 8.30905 8.78865L6.69315 7.5341C6.24545 7.8341 5.6727 8.01135 5 8.01135C3.6977 8.01135 2.59545 7.1318 2.20225 5.95H0.531799V7.24545C1.35455 8.87955 3.04545 10 5 10Z" fill="#34A853"/>
<path d="M2.20225 5.95C2.10225 5.65 2.04545 5.32955 2.04545 5C2.04545 4.67045 2.10225 4.35 2.20225 4.05V2.75455H0.5318C0.1932 3.42955 0 4.1932 0 5C0 5.8068 0.1932 6.57045 0.5318 7.24545L2.20225 5.95Z" fill="#FBBC04"/>
<path d="M5 1.98865C5.73405 1.98865 6.39315 2.2409 6.91135 2.73635L8.34545 1.30225C7.47955 0.49545 6.3477 0 5 0C3.04545 0 1.35455 1.12045 0.531799 2.75455L2.20225 4.05C2.59545 2.8682 3.6977 1.98865 5 1.98865Z" fill="#E94235"/>
</g>
</svg>
